<?xml version="1.0" standalone="no"?>
<!DOCTYPE svg PUBLIC "-//W3C//DTD SVG 20010904//EN"
 "http://www.w3.org/TR/2001/REC-SVG-20010904/DTD/svg10.dtd">
<svg version="1.0" xmlns="http://www.w3.org/2000/svg"
 width="969.000000pt" height="969.000000pt" viewBox="0 0 969.000000 969.000000"
 preserveAspectRatio="xMidYMid meet">
<metadata>
Created by potrace 1.14, written by Peter Selinger 2001-2017
</metadata>
<g transform="translate(0.000000,969.000000) scale(0.100000,-0.100000)"
fill="#000000" stroke="none">
<path d="M4605 9673 c-144 -6 -406 -35 -575 -64 -1318 -221 -2495 -993 -3234
-2121 -420 -642 -669 -1337 -763 -2133 -25 -214 -25 -816 0 -1030 94 -796 343
-1491 763 -2133 294 -448 671 -857 1091 -1180 138 -107 304 -223 285 -200 -10
12 -12 267 -10 1264 l3 1249 26 56 c37 79 90 133 167 171 l67 33 487 3 488 3
0 167 0 167 -60 84 c-108 150 -195 334 -236 499 l-18 72 -39 0 c-50 0 -106 31
-137 77 -23 34 -25 48 -30 181 -5 143 -5 144 -33 168 -16 14 -41 24 -58 24
-20 0 -40 10 -60 29 l-29 29 0 196 c0 130 4 204 12 221 14 30 55 55 93 55 14
0 37 11 50 25 24 23 25 29 25 155 0 138 11 181 57 222 29 27 92 50 126 46 l30
-3 37 120 c95 311 227 533 455 760 145 145 266 236 426 319 257 135 483 193
779 203 393 12 731 -85 1066 -308 152 -102 363 -313 463 -463 121 -182 213
-388 268 -596 8 -32 12 -35 40 -32 46 5 116 -30 149 -74 28 -36 29 -41 34
-187 5 -141 6 -150 29 -168 13 -10 34 -19 48 -19 36 0 78 -25 91 -55 8 -17 12
-91 12 -221 l0 -196 -29 -29 c-20 -20 -39 -29 -61 -29 -22 0 -41 -9 -61 -29
l-29 -29 0 -128 c0 -109 -3 -134 -21 -171 -26 -54 -88 -93 -146 -93 -39 0 -41
-2 -48 -37 -27 -145 -118 -348 -228 -511 l-77 -114 0 -163 0 -164 493 -3 492
-3 55 -28 c75 -39 133 -98 167 -171 l28 -61 3 -1252 c1 -689 6 -1253 10 -1253
12 0 260 184 387 287 144 117 509 478 624 618 563 680 924 1458 1065 2296 53
308 61 418 61 819 0 401 -8 511 -61 819 -141 838 -504 1619 -1065 2296 -117
142 -461 483 -610 606 -950 782 -2101 1166 -3334 1112z"/>
<path d="M4570 6510 c-677 -64 -1223 -324 -1404 -669 -66 -127 -67 -138 -64
-548 l3 -368 26 -63 c46 -109 91 -174 184 -267 234 -236 613 -402 1086 -477
126 -20 182 -22 449 -23 328 0 423 9 660 61 255 57 532 168 706 284 113 76
260 227 306 315 68 132 70 147 76 487 5 336 -4 444 -43 539 -74 184 -260 358
-520 487 -227 113 -474 184 -785 227 -137 19 -543 28 -680 15z"/>
<path d="M2945 5285 c-51 -50 -17 -105 65 -105 l40 0 0 65 0 65 -40 0 c-30 0
-47 -7 -65 -25z"/>
<path d="M6666 5289 c-33 -26 -35 -71 -4 -93 32 -23 100 -20 132 5 33 26 33
40 0 78 -32 38 -87 43 -128 10z"/>
<path d="M4440 2530 c-397 -5 -406 -5 -452 -28 -74 -37 -134 -96 -170 -170
-30 -61 -33 -75 -33 -157 1 -78 4 -98 29 -147 35 -73 100 -139 174 -175 l57
-28 800 0 800 0 67 33 c77 38 130 92 167 171 22 49 26 69 25 151 0 112 -19
163 -85 235 -53 58 -115 94 -188 111 -59 14 -341 15 -1191 4z"/>
<path d="M4117 583 c397 -2 1049 -2 1450 0 400 1 76 2 -722 2 -797 0 -1125 -1
-728 -2z"/>
<path d="M2600 556 c0 -3 9 -10 20 -16 11 -6 20 -8 20 -6 0 3 -9 10 -20 16
-11 6 -20 8 -20 6z"/>
<path d="M5918 123 c7 -3 16 -2 19 1 4 3 -2 6 -13 5 -11 0 -14 -3 -6 -6z"/>
<path d="M5828 103 c7 -3 16 -2 19 1 4 3 -2 6 -13 5 -11 0 -14 -3 -6 -6z"/>
<path d="M5778 93 c7 -3 16 -2 19 1 4 3 -2 6 -13 5 -11 0 -14 -3 -6 -6z"/>
<path d="M5728 83 c7 -3 16 -2 19 1 4 3 -2 6 -13 5 -11 0 -14 -3 -6 -6z"/>
<path d="M5668 73 c7 -3 16 -2 19 1 4 3 -2 6 -13 5 -11 0 -14 -3 -6 -6z"/>
<path d="M5608 63 c7 -3 16 -2 19 1 4 3 -2 6 -13 5 -11 0 -14 -3 -6 -6z"/>
<path d="M5538 53 c6 -2 18 -2 25 0 6 3 1 5 -13 5 -14 0 -19 -2 -12 -5z"/>
<path d="M5468 43 c6 -2 18 -2 25 0 6 3 1 5 -13 5 -14 0 -19 -2 -12 -5z"/>
<path d="M5383 33 c9 -2 23 -2 30 0 6 3 -1 5 -18 5 -16 0 -22 -2 -12 -5z"/>
<path d="M4378 23 c7 -3 16 -2 19 1 4 3 -2 6 -13 5 -11 0 -14 -3 -6 -6z"/>
<path d="M5283 23 c9 -2 23 -2 30 0 6 3 -1 5 -18 5 -16 0 -22 -2 -12 -5z"/>
<path d="M4498 13 c7 -3 16 -2 19 1 4 3 -2 6 -13 5 -11 0 -14 -3 -6 -6z"/>
<path d="M5148 13 c12 -2 32 -2 45 0 12 2 2 4 -23 4 -25 0 -35 -2 -22 -4z"/>
<path d="M4693 3 c15 -2 39 -2 55 0 15 2 2 4 -28 4 -30 0 -43 -2 -27 -4z"/>
<path d="M4883 3 c26 -2 68 -2 95 0 26 2 4 3 -48 3 -52 0 -74 -1 -47 -3z"/>
</g>
</svg>
